<?xml version="1.0" standalone="no"?>
<!DOCTYPE svg PUBLIC "-//W3C//DTD SVG 20010904//EN"
 "http://www.w3.org/TR/2001/REC-SVG-20010904/DTD/svg10.dtd">
<svg version="1.0" xmlns="http://www.w3.org/2000/svg"
 width="401.000000pt" height="401.000000pt" viewBox="0 0 401.000000 401.000000"
 preserveAspectRatio="xMidYMid meet">
<metadata>
Created by potrace 1.11, written by Peter Selinger 2001-2013
</metadata>
<g transform="translate(0.000000,401.000000) scale(0.100000,-0.100000)"
fill="#000000" stroke="none">
<path d="M1926 3993 c-3 -3 -36 -7 -73 -9 -37 -1 -81 -5 -98 -8 -26 -4 -92
-13 -160 -22 -11 -1 -20 -3 -20 -4 0 -1 -7 -3 -15 -5 -45 -10 -69 -15 -105
-25 -22 -6 -47 -13 -55 -15 -8 -2 -16 -4 -17 -5 -2 -2 -7 -4 -13 -5 -5 -1 -12
-4 -15 -5 -3 -1 -9 -3 -14 -4 -5 0 -13 -4 -17 -8 -4 -5 -16 -8 -26 -8 -10 0
-18 -5 -18 -11 0 -5 -4 -8 -9 -5 -8 6 -219 -89 -231 -103 -5 -6 -43 -28 -101
-58 -15 -7 -32 -20 -39 -28 -7 -8 -18 -15 -25 -15 -6 0 -20 -9 -30 -20 -10
-11 -24 -20 -32 -20 -7 0 -13 -4 -13 -8 0 -4 -14 -16 -31 -26 -35 -21 -282
-264 -319 -314 -14 -19 -34 -46 -46 -60 -33 -42 -114 -171 -114 -182 0 -6 -4
-10 -9 -10 -5 0 -13 -10 -17 -22 -4 -13 -18 -41 -32 -63 -15 -22 -28 -49 -29
-60 -2 -11 -8 -21 -13 -23 -6 -2 -10 -12 -10 -22 0 -10 -4 -20 -10 -22 -5 -1
-11 -12 -13 -23 -2 -11 -9 -33 -16 -49 -10 -25 -59 -170 -68 -201 -38 -138
-38 -134 -38 -465 0 -300 4 -383 20 -450 7 -28 16 -70 19 -85 1 -5 5 -16 10
-23 4 -7 6 -16 3 -18 -4 -5 37 -131 60 -184 3 -8 7 -17 8 -20 19 -54 117 -254
129 -262 6 -4 8 -8 4 -8 -6 0 69 -121 91 -147 6 -7 11 -15 11 -18 0 -4 6 -12
13 -19 6 -7 23 -28 37 -46 64 -86 207 -236 221 -233 5 2 9 -1 9 -7 0 -5 28
-32 62 -60 35 -27 72 -58 83 -68 11 -9 54 -38 95 -64 41 -26 80 -52 87 -58 7
-5 18 -10 25 -11 7 0 27 -9 43 -19 25 -16 88 -49 105 -55 3 -1 19 -8 35 -15
17 -7 32 -14 35 -15 3 -1 19 -7 35 -14 42 -18 107 -42 125 -46 8 -2 27 -8 43
-14 15 -6 27 -8 27 -5 0 4 6 2 13 -3 6 -6 28 -13 47 -17 19 -3 46 -8 60 -11
102 -22 194 -36 269 -41 35 -2 66 -6 69 -8 2 -3 15 -1 29 5 13 5 22 5 19 0 -3
-5 13 -7 37 -5 23 1 80 5 127 8 47 3 96 8 110 11 14 2 36 7 50 10 14 2 40 7
57 10 99 16 233 56 403 120 106 39 370 183 378 206 2 5 9 9 16 9 6 0 25 12 42
27 17 16 56 48 88 72 31 24 65 55 76 68 10 13 23 23 29 23 6 0 11 3 11 8 0 4
26 35 58 68 92 97 206 243 202 260 -1 4 3 10 9 14 12 7 46 64 84 140 12 25 25
47 28 50 3 3 22 46 42 95 21 50 42 98 48 108 5 10 7 22 4 27 -3 5 -1 11 4 15
6 3 15 22 21 43 23 79 52 188 55 212 2 14 9 52 15 85 13 72 23 214 22 310 0
120 -18 330 -28 347 -3 4 -7 26 -10 50 -4 24 -10 45 -15 46 -5 2 -7 7 -4 11 2
4 0 23 -5 42 -5 19 -10 39 -11 44 0 6 -5 16 -11 23 -6 6 -8 12 -5 12 11 0 -82
235 -123 310 -10 19 -26 52 -35 73 -10 20 -21 37 -26 37 -5 0 -9 5 -9 10 0 12
-87 142 -119 179 -11 13 -21 27 -21 32 0 11 -260 271 -305 304 -22 17 -44 35
-50 41 -5 6 -50 38 -100 71 -80 54 -132 85 -230 137 -45 24 -155 71 -200 86
-22 7 -65 21 -95 31 -70 23 -143 43 -151 41 -4 -1 -22 3 -40 8 -19 6 -56 12
-84 15 -27 3 -57 8 -65 10 -9 3 -55 7 -104 10 -48 3 -92 7 -97 11 -5 3 -9 0
-9 -6 0 -7 -6 -8 -19 0 -12 6 -22 6 -26 1 -3 -6 -17 -6 -34 -1 -16 4 -32 6
-35 3z"/>
</g>
</svg>
